# xmcd
#
# Track frame offsets:
#	150
#	13916
#	32003
#	49775
#	65481
#	82807
#	97220
#	115576
#	131732
#	146963
#	164172
#	196698
#
# Disc length: 2918 seconds
#
# Revision: 1
# Processed by: cddbd v1.5.2PL0 Copyright (c) Steve Scherf et al.
# Submitted via: audiograbber 1.83.01
#
DISCID=aa0b640c
DTITLE=Vivien Searcy - Water On Soil
DYEAR=2006
DGENRE=Country
TTITLE0=Local Place
TTITLE1=Touch
TTITLE2=Guitarman
TTITLE3=My Friend
TTITLE4=Water On Soil
TTITLE5=Dog Song
TTITLE6=Youre Comming Home With Me
TTITLE7=Another Rainy Day
TTITLE8=Talk To The Hand
TTITLE9=Lets Go Walk
TTITLE10=Nothing More, Nothing Less
TTITLE11=Daten-CD
EXTD=
EXTT0=
EXTT1=
EXTT2=
EXTT3=
EXTT4=
EXTT5=
EXTT6=
EXTT7=
EXTT8=
EXTT9=
EXTT10=
EXTT11=
PLAYORDER=
